<mxfile host="app.diagrams.net" agent="Mozilla/5.0 (X11; Linux x86_64; rv:109.0) Gecko/20100101 Firefox/117.0" version="26.2.14">
  <diagram id="Ht1M8jgEwFfnCIfOTk4-" name="Page-1">
    <mxGraphModel dx="1199" dy="1269" grid="1" gridSize="10" guides="1" tooltips="1" connect="1" arrows="1" fold="1" page="1" pageScale="1" pageWidth="1169" pageHeight="827" math="0" shadow="0">
      <root>
        <mxCell id="0" />
        <mxCell id="1" parent="0" />
        <mxCell id="lo9Jrby53qmokQeA53hw-12" value="Region" style="shape=mxgraph.ibm.box;prType=region;fontStyle=0;verticalAlign=top;align=left;spacingLeft=32;spacingTop=4;fillColor=none;rounded=0;whiteSpace=wrap;html=1;strokeColor=#919191;strokeWidth=2;dashed=0;container=0;spacing=-4;collapsible=0;expand=0;recursiveResize=0;movable=0;resizable=0;rotatable=0;deletable=0;editable=0;locked=1;connectable=0;" vertex="1" parent="1">
          <mxGeometry x="200" y="50" width="1090" height="770" as="geometry" />
        </mxCell>
        <mxCell id="lo9Jrby53qmokQeA53hw-9" value="" style="rounded=1;arcSize=10;dashed=1;fillColor=#dae8fc;dashPattern=1 1;strokeWidth=2;strokeColor=#6c8ebf;" vertex="1" parent="1">
          <mxGeometry x="540" y="80" width="199.5" height="720" as="geometry" />
        </mxCell>
        <mxCell id="lo9Jrby53qmokQeA53hw-10" value="" style="rounded=1;arcSize=10;dashed=1;fillColor=#dae8fc;dashPattern=1 1;strokeWidth=2;strokeColor=#6c8ebf;" vertex="1" parent="1">
          <mxGeometry x="770" y="80" width="199.5" height="720" as="geometry" />
        </mxCell>
        <mxCell id="lo9Jrby53qmokQeA53hw-11" value="" style="rounded=1;arcSize=10;dashed=1;fillColor=#dae8fc;dashPattern=1 1;strokeWidth=2;strokeColor=#6c8ebf;" vertex="1" parent="1">
          <mxGeometry x="1000" y="80" width="199.5" height="720" as="geometry" />
        </mxCell>
        <mxCell id="lo9Jrby53qmokQeA53hw-5" value="" style="rounded=1;arcSize=10;dashed=1;dashPattern=1 1;strokeWidth=2;fillColor=#dae8fc;strokeColor=#6c8ebf;" vertex="1" parent="1">
          <mxGeometry x="310" y="80" width="199.5" height="720" as="geometry" />
        </mxCell>
        <mxCell id="lo9Jrby53qmokQeA53hw-2" value="VPC" style="points=[[0,0],[0.25,0],[0.5,0],[0.75,0],[1,0],[1,0.25],[1,0.5],[1,0.75],[1,1],[0.75,1],[0.5,1],[0.25,1],[0,1],[0,0.75],[0,0.5],[0,0.25]];outlineConnect=0;gradientColor=none;html=1;whiteSpace=wrap;fontSize=12;fontStyle=0;container=1;pointerEvents=0;collapsible=0;recursiveResize=0;shape=mxgraph.aws4.group;grIcon=mxgraph.aws4.group_vpc2;strokeColor=#8C4FFF;fillColor=none;verticalAlign=top;align=left;spacingLeft=30;fontColor=#AAB7B8;dashed=0;movable=1;resizable=1;rotatable=1;deletable=1;editable=1;locked=0;connectable=1;" vertex="1" parent="1">
          <mxGeometry x="240" y="150" width="1020" height="550" as="geometry" />
        </mxCell>
        <mxCell id="lo9Jrby53qmokQeA53hw-13" value="&lt;font style=&quot;font-size: 32px;&quot;&gt;AZA&lt;/font&gt;" style="text;html=1;align=center;verticalAlign=middle;whiteSpace=wrap;rounded=0;" vertex="1" parent="1">
          <mxGeometry x="350" y="90" width="110" height="61" as="geometry" />
        </mxCell>
        <mxCell id="lo9Jrby53qmokQeA53hw-14" value="&lt;font style=&quot;font-size: 32px;&quot;&gt;AZB&lt;/font&gt;" style="text;html=1;align=center;verticalAlign=middle;whiteSpace=wrap;rounded=0;fillColor=#dae8fc;strokeColor=#6c8ebf;" vertex="1" parent="1">
          <mxGeometry x="584.75" y="90" width="110" height="61" as="geometry" />
        </mxCell>
        <mxCell id="lo9Jrby53qmokQeA53hw-15" value="&lt;font style=&quot;font-size: 32px;&quot;&gt;AZC&lt;/font&gt;" style="text;html=1;align=center;verticalAlign=middle;whiteSpace=wrap;rounded=0;fillColor=#dae8fc;strokeColor=#6c8ebf;" vertex="1" parent="1">
          <mxGeometry x="810" y="90" width="110" height="61" as="geometry" />
        </mxCell>
        <mxCell id="lo9Jrby53qmokQeA53hw-16" value="&lt;font style=&quot;font-size: 32px;&quot;&gt;SPARE&lt;/font&gt;" style="text;html=1;align=center;verticalAlign=middle;whiteSpace=wrap;rounded=0;fillColor=#dae8fc;strokeColor=#6c8ebf;" vertex="1" parent="1">
          <mxGeometry x="1040" y="90" width="110" height="61" as="geometry" />
        </mxCell>
        <mxCell id="lo9Jrby53qmokQeA53hw-29" value="" style="group" vertex="1" connectable="0" parent="1">
          <mxGeometry x="80" y="560" width="1180" height="100" as="geometry" />
        </mxCell>
        <mxCell id="lo9Jrby53qmokQeA53hw-18" value="" style="html=1;align=center;verticalAlign=top;rounded=1;absoluteArcSize=1;arcSize=20;dashed=1;whiteSpace=wrap;fillColor=#f8cecc;strokeColor=#b85450;opacity=80;" vertex="1" parent="lo9Jrby53qmokQeA53hw-29">
          <mxGeometry width="1180" height="100" as="geometry" />
        </mxCell>
        <mxCell id="lo9Jrby53qmokQeA53hw-28" value="&lt;font style=&quot;font-size: 32px;&quot;&gt;Spare&lt;/font&gt;" style="text;html=1;align=center;verticalAlign=middle;whiteSpace=wrap;rounded=0;" vertex="1" parent="lo9Jrby53qmokQeA53hw-29">
          <mxGeometry x="11.456310679611649" y="19.5" width="126.01941747572815" height="61" as="geometry" />
        </mxCell>
        <mxCell id="lo9Jrby53qmokQeA53hw-31" value="" style="group" vertex="1" connectable="0" parent="1">
          <mxGeometry x="80" y="440" width="1180" height="100" as="geometry" />
        </mxCell>
        <mxCell id="lo9Jrby53qmokQeA53hw-32" value="" style="html=1;align=center;verticalAlign=top;rounded=1;absoluteArcSize=1;arcSize=20;dashed=1;whiteSpace=wrap;fillColor=#f8cecc;strokeColor=#b85450;opacity=80;" vertex="1" parent="lo9Jrby53qmokQeA53hw-31">
          <mxGeometry width="1180" height="100" as="geometry" />
        </mxCell>
        <mxCell id="lo9Jrby53qmokQeA53hw-33" value="&lt;font style=&quot;font-size: 32px;&quot;&gt;MYSQL/DB&lt;/font&gt;" style="text;html=1;align=center;verticalAlign=middle;whiteSpace=wrap;rounded=0;" vertex="1" parent="lo9Jrby53qmokQeA53hw-31">
          <mxGeometry x="38.996310679611646" y="19.5" width="126.01941747572815" height="61" as="geometry" />
        </mxCell>
        <mxCell id="lo9Jrby53qmokQeA53hw-34" value="" style="group" vertex="1" connectable="0" parent="1">
          <mxGeometry x="80" y="320" width="1180" height="100" as="geometry" />
        </mxCell>
        <mxCell id="lo9Jrby53qmokQeA53hw-35" value="" style="html=1;align=center;verticalAlign=top;rounded=1;absoluteArcSize=1;arcSize=20;dashed=1;whiteSpace=wrap;fillColor=#f8cecc;strokeColor=#b85450;opacity=80;" vertex="1" parent="lo9Jrby53qmokQeA53hw-34">
          <mxGeometry width="1180" height="100" as="geometry" />
        </mxCell>
        <mxCell id="lo9Jrby53qmokQeA53hw-36" value="&lt;font style=&quot;font-size: 32px;&quot;&gt;APP/EJBCA&lt;/font&gt;" style="text;html=1;align=center;verticalAlign=middle;whiteSpace=wrap;rounded=0;" vertex="1" parent="lo9Jrby53qmokQeA53hw-34">
          <mxGeometry x="39.996310679611646" y="19.5" width="126.01941747572815" height="61" as="geometry" />
        </mxCell>
        <mxCell id="lo9Jrby53qmokQeA53hw-37" value="" style="group" vertex="1" connectable="0" parent="1">
          <mxGeometry x="80" y="200" width="1180" height="100" as="geometry" />
        </mxCell>
        <mxCell id="lo9Jrby53qmokQeA53hw-38" value="" style="html=1;align=center;verticalAlign=top;rounded=1;absoluteArcSize=1;arcSize=20;dashed=1;whiteSpace=wrap;fillColor=#f8cecc;strokeColor=#b85450;opacity=80;" vertex="1" parent="lo9Jrby53qmokQeA53hw-37">
          <mxGeometry width="1180" height="100" as="geometry" />
        </mxCell>
        <mxCell id="lo9Jrby53qmokQeA53hw-39" value="&lt;font style=&quot;font-size: 32px;&quot;&gt;Web&lt;/font&gt;" style="text;html=1;align=center;verticalAlign=middle;whiteSpace=wrap;rounded=0;" vertex="1" parent="lo9Jrby53qmokQeA53hw-37">
          <mxGeometry x="11.456310679611649" y="19.5" width="126.01941747572815" height="61" as="geometry" />
        </mxCell>
      </root>
    </mxGraphModel>
  </diagram>
</mxfile>
